# xmcd
#
# Track frame offsets: 
#        150
#        31100
#        62337
#        93317
#        130387
#        157127
#        188120
#        217463
#        255399
#
# Disc length: 4228 seconds
#
# Revision: 2
# Processed by: cddbd v1.5.2PL0 Copyright (c) Steve Scherf et al.
# Submitted via: ExactAudioCopy v0.99pb3
#
DISCID=7c108209
DTITLE=Eric Clapton - Estadio River Plate, Buenos Aires, Argentina - O
DTITLE=ctober 5, 1990
DYEAR=1990
DGENRE=Blues
TTITLE0=Pretending
TTITLE1=No Alabis
TTITLE2=Running On Faith
TTITLE3=I Shot The Sheriff
TTITLE4=White Room
TTITLE5=Can't Find My Way Home
TTITLE6=Bad Love
TTITLE7=Before You Accuse Me
TTITLE8=Old Love
EXTD=
EXTT0=
EXTT1=
EXTT2=
EXTT3=
EXTT4=
EXTT5=
EXTT6=
EXTT7=
EXTT8=
PLAYORDER=
